<?xml version="1.0" encoding="UTF-8" standalone="no"?>
<!-- Created with Inkscape (http://www.inkscape.org/) -->

<svg
   xmlns:dc="http://purl.org/dc/elements/1.1/"
   xmlns:cc="http://creativecommons.org/ns#"
   xmlns:rdf="http://www.w3.org/1999/02/22-rdf-syntax-ns#"
   xmlns:svg="http://www.w3.org/2000/svg"
   xmlns="http://www.w3.org/2000/svg"
   xmlns:sodipodi="http://sodipodi.sourceforge.net/DTD/sodipodi-0.dtd"
   xmlns:inkscape="http://www.inkscape.org/namespaces/inkscape"
   id="svg2"
   version="1.1"
   inkscape:version="0.48.5 r10040"
   width="1369.1"
   height="744.8625"
   xml:space="preserve"
   sodipodi:docname="Compulink_Group_logo_ai.ai"><metadata
     id="metadata8"><rdf:RDF><cc:Work
         rdf:about=""><dc:format>image/svg+xml</dc:format><dc:type
           rdf:resource="http://purl.org/dc/dcmitype/StillImage" /><dc:title></dc:title></cc:Work></rdf:RDF></metadata><defs
     id="defs6"><clipPath
       clipPathUnits="userSpaceOnUse"
       id="clipPath26"><path
         d="m 0,595.89 1095.276,0 0,-595.89 L 0,0 0,595.89 z"
         id="path28" /></clipPath></defs><sodipodi:namedview
     pagecolor="#ffffff"
     bordercolor="#666666"
     borderopacity="1"
     objecttolerance="10"
     gridtolerance="10"
     guidetolerance="10"
     inkscape:pageopacity="0"
     inkscape:pageshadow="2"
     inkscape:window-width="640"
     inkscape:window-height="480"
     id="namedview4"
     showgrid="false"
     inkscape:zoom="0.31683701"
     inkscape:cx="684.54999"
     inkscape:cy="372.43124"
     inkscape:window-x="815"
     inkscape:window-y="366"
     inkscape:window-maximized="0"
     inkscape:current-layer="g10" /><g
     id="g10"
     inkscape:groupmode="layer"
     inkscape:label="Compulink_Group_logo_ai"
     transform="matrix(1.25,0,0,-1.25,0,744.8625)"><path
       d="m 211.004,299.028 4.135,0 0,26.131 -4.135,0 0,-26.131 z"
       style="fill:#40a4dc;fill-opacity:1;fill-rule:nonzero;stroke:none"
       id="path12" /><g
       id="g14"
       transform="translate(256.3247,306.6396)"><path
         d="m 0,0 8.689,8.038 -3.842,0.01 -1.984,0 -7.488,-6.673 0,16.946 -4.131,0 0,-25.867 4.131,0 0,3.358 1.519,1.5 L 2.475,-7.449 9.05,-7.453 0,0 z"
         style="fill:#40a4dc;fill-opacity:1;fill-rule:nonzero;stroke:none"
         id="path16" /></g><g
       id="g18"
       transform="translate(218.877,320.9453)"><path
         d="m 0,0 1.493,0 0,-6.085 -1.502,0 0,-15.805 4.134,0 0,15.805 -1.431,0 0,6.085 1.437,0 0,4.19 L 0,4.19 0,0 z"
         style="fill:#40a4dc;fill-opacity:1;fill-rule:nonzero;stroke:none"
         id="path20" /></g><g
       id="g22"><g
         id="g24"
         clip-path="url(#clipPath26)"><g
           id="g30"
           transform="translate(239.7271,314.3711)"><path
             d="m 0,0 c -1.198,0.418 -2.209,0.459 -2.705,0.459 -0.1,0 -0.18,0 -0.24,-0.003 l -10.02,0 0,-15.771 4.133,0 0,11.639 6.019,0 0.079,0.005 0.029,0 c 0.26,0.012 1.222,-0.076 1.852,-0.464 0.324,-0.196 0.576,-0.425 0.79,-0.789 0.209,-0.367 0.393,-0.92 0.396,-1.859 l 0,-8.569 4.134,0 0,8.569 C 4.469,-5.264 4.135,-3.939 3.528,-2.88 2.616,-1.271 1.18,-0.408 0,0"
             style="fill:#40a4dc;fill-opacity:1;fill-rule:nonzero;stroke:none"
             id="path32" /></g><path
           d="m 216.004,218.278 4.135,0 0,26.131 -4.135,0 0,-26.131 z"
           style="fill:#96989b;fill-opacity:1;fill-rule:nonzero;stroke:none"
           id="path34" /><g
           id="g36"
           transform="translate(261.3247,225.8896)"><path
             d="m 0,0 8.689,8.038 -3.842,0.01 -1.984,0 -7.488,-6.673 0,16.946 -4.131,0 0,-25.867 4.131,0 0,3.358 1.519,1.5 L 2.475,-7.449 9.05,-7.453 0,0 z"
             style="fill:#96989b;fill-opacity:1;fill-rule:nonzero;stroke:none"
             id="path38" /></g><g
           id="g40"
           transform="translate(223.877,240.1953)"><path
             d="m 0,0 1.493,0 0,-6.085 -1.502,0 0,-15.805 4.134,0 0,15.805 -1.431,0 0,6.085 1.437,0 0,4.19 L 0,4.19 0,0 z"
             style="fill:#96989b;fill-opacity:1;fill-rule:nonzero;stroke:none"
             id="path42" /></g><g
           id="g44"
           transform="translate(244.7271,233.6211)"><path
             d="m 0,0 c -1.198,0.418 -2.209,0.459 -2.705,0.459 -0.1,0 -0.18,0 -0.24,-0.003 l -10.02,0 0,-15.771 4.133,0 0,11.639 6.019,0 0.079,0.005 0.029,0 c 0.26,0.012 1.222,-0.076 1.852,-0.464 0.324,-0.196 0.576,-0.425 0.79,-0.789 0.209,-0.367 0.393,-0.92 0.396,-1.859 l 0,-8.569 4.134,0 0,8.569 C 4.469,-5.264 4.135,-3.939 3.528,-2.88 2.616,-1.271 1.18,-0.408 0,0"
             style="fill:#96989b;fill-opacity:1;fill-rule:nonzero;stroke:none"
             id="path46" /></g><g
           id="g48"
           transform="translate(203.0806,303.2188)"><path
             d="m 0,0 -6.017,0 -0.052,-0.001 c -0.013,0 -0.033,-0.003 -0.061,-0.003 -0.261,-0.011 -1.221,0.074 -1.851,0.465 -0.321,0.194 -0.577,0.422 -0.788,0.786 -0.205,0.373 -0.394,0.921 -0.399,1.858 l 0,8.614 -4.133,0 0,-2.497 0,-6.117 c -0.003,-1.516 0.336,-2.836 0.939,-3.899 0.911,-1.61 2.346,-2.475 3.53,-2.882 1.197,-0.417 2.207,-0.459 2.702,-0.459 0.09,0 0.163,0 0.213,0.003 l 10.05,0 0,15.851 L 0,11.719 0,0 z"
             style="fill:#373536;fill-opacity:1;fill-rule:nonzero;stroke:none"
             id="path50" /></g><g
           id="g52"
           transform="translate(160.4937,314.6279)"><path
             d="m 0,0 c -1.195,0.416 -2.208,0.46 -2.701,0.463 -0.1,0 -0.18,-0.003 -0.239,-0.006 l -2.768,0 0,-0.003 -2.319,0 0,0.003 0,0.003 -2.81,0 c -0.053,0.001 -0.118,0.003 -0.197,0.003 -0.655,-0.012 -2.25,-0.059 -3.941,-1.032 -0.838,-0.488 -1.688,-1.245 -2.291,-2.312 -0.607,-1.059 -0.941,-2.383 -0.938,-3.9 l 0,-8.914 4.133,0 c -0.002,2.23 -0.002,4.541 -0.002,8.914 0.004,0.938 0.192,1.489 0.401,1.858 0.309,0.538 0.747,0.821 1.305,1.027 0.545,0.194 1.137,0.228 1.333,0.225 0.031,0 0.048,-0.003 0.048,-0.003 l 0.007,0.003 0.056,-0.006 1.943,0 0,-11.992 4.131,0 0,11.992 2.044,0 0.052,0.003 c 0.003,0 0.022,0.003 0.052,0.003 0.261,0.011 1.221,-0.075 1.852,-0.462 0.324,-0.193 0.575,-0.425 0.788,-0.79 0.206,-0.369 0.394,-0.92 0.398,-1.858 -0.001,-4.37 -0.001,-6.687 -0.001,-8.914 l 4.133,0 0,8.914 c 0.005,1.517 -0.331,2.841 -0.94,3.9 C 2.619,-1.273 1.183,-0.406 0,0"
             style="fill:#373536;fill-opacity:1;fill-rule:nonzero;stroke:none"
             id="path54" /></g><g
           id="g56"
           transform="translate(182.6157,307.3301)"><path
             d="m 0,0 0,-0.437 0,-0.684 c -0.004,-0.937 -0.19,-1.485 -0.398,-1.855 -0.311,-0.539 -0.75,-0.82 -1.307,-1.025 -0.545,-0.196 -1.14,-0.231 -1.334,-0.228 l -0.072,0 -0.05,0.003 -6.778,0.006 0,7.797 6.797,0 0.049,0.003 c 0,0 0.023,0.003 0.054,0.003 0.26,0.011 1.222,-0.074 1.851,-0.465 0.323,-0.193 0.576,-0.419 0.79,-0.79 C -0.19,1.962 -0.004,1.411 0,0.473 L 0,0.029 0,0 z m -0.333,7.251 c -1.198,0.419 -2.212,0.461 -2.706,0.463 -0.101,0 -0.179,0 -0.239,-0.003 l -10.798,0 0,-4.134 0.004,0 0,-20.552 4.133,0 0,8.621 6.659,-0.001 c 0.051,-0.005 0.129,-0.005 0.241,-0.005 0.656,0.009 2.248,0.058 3.941,1.028 0.839,0.491 1.688,1.249 2.292,2.31 0.605,1.061 0.941,2.386 0.939,3.901 l 0,1.121 0,0.029 0,0.444 C 4.135,1.989 3.799,3.313 3.194,4.373 2.281,5.98 0.847,6.848 -0.333,7.251"
             style="fill:#373536;fill-opacity:1;fill-rule:nonzero;stroke:none"
             id="path58" /></g><g
           id="g60"
           transform="translate(108.6602,303.1045)"><path
             d="m 0,0 -0.039,-0.004 -0.076,0 C -0.376,-0.017 -1.336,0.072 -1.968,0.46 -2.289,0.652 -2.541,0.881 -2.754,1.25 -2.961,1.619 -3.148,2.171 -3.153,3.104 l 0,1.124 0,0.03 0,0.44 c 0.005,0.939 0.192,1.49 0.399,1.856 0.31,0.541 0.748,0.822 1.307,1.026 0.542,0.197 1.141,0.232 1.332,0.229 0.03,0 0.047,-0.003 0.053,-0.003 l 0.046,-0.003 8.827,0 0,4.134 -8.688,0 c -0.056,0.002 -0.138,0.002 -0.238,0.002 -0.656,-0.009 -2.248,-0.057 -3.94,-1.03 C -4.893,10.423 -5.744,9.664 -6.347,8.599 -6.953,7.539 -7.29,6.215 -7.285,4.698 l 0,-0.44 0,-0.03 0,-0.439 0,-0.685 c -0.005,-1.514 0.332,-2.838 0.938,-3.899 0.911,-1.608 2.347,-2.473 3.53,-2.88 1.194,-0.416 2.209,-0.457 2.702,-0.462 0.087,0 0.155,0.002 0.203,0.005 L 8.832,-4.125 8.829,0.009 0,0 z"
             style="fill:#373536;fill-opacity:1;fill-rule:nonzero;stroke:none"
             id="path62" /></g><g
           id="g64"
           transform="translate(135.0503,307.333)"><path
             d="M 0,0 0,-0.439 0,-1.127 C -0.001,-2.061 -0.189,-2.609 -0.398,-2.979 -0.706,-3.518 -1.146,-3.799 -1.705,-4.004 -2.25,-4.2 -2.844,-4.233 -3.039,-4.232 l -0.072,0 -0.054,0.003 -2.047,0.006 -0.011,0 -0.126,0.003 0,-0.003 -2.059,-0.006 -0.041,-0.003 -0.076,0 c -0.261,-0.013 -1.223,0.076 -1.85,0.463 -0.323,0.193 -0.576,0.421 -0.789,0.79 -0.208,0.37 -0.397,0.918 -0.399,1.855 l 0,1.123 0,0.471 c 0.002,0.938 0.191,1.489 0.399,1.855 0.31,0.541 0.748,0.822 1.306,1.029 0.546,0.192 1.139,0.229 1.332,0.223 l 0.043,0 0.063,-0.003 2.214,0 2.069,0 0.046,0.003 c 0,0 0.025,0.003 0.052,0.003 0.262,0.01 1.223,-0.074 1.852,-0.465 C -0.862,2.922 -0.611,2.696 -0.398,2.327 -0.189,1.959 -0.001,1.408 0,0.471 L 0,0.029 0,0 z m -0.334,7.251 c -1.198,0.416 -2.209,0.457 -2.705,0.46 -0.101,0 -0.179,-0.002 -0.238,-0.003 l -1.929,0 -2.081,0 c -0.059,0.003 -0.138,0.003 -0.239,0.003 -0.656,-0.012 -2.248,-0.058 -3.939,-1.03 -0.839,-0.489 -1.69,-1.245 -2.291,-2.311 -0.607,-1.059 -0.94,-2.383 -0.939,-3.9 l 0,-0.444 0,-0.465 0,-0.685 c -0.003,-1.515 0.333,-2.84 0.939,-3.901 0.912,-1.608 2.346,-2.471 3.527,-2.878 1.199,-0.416 2.208,-0.46 2.704,-0.462 0.087,0 0.159,0.002 0.207,0.002 l 1.958,0.009 2.078,-0.004 c 0.046,-0.005 0.131,-0.007 0.243,-0.007 0.657,0.011 2.247,0.06 3.942,1.03 0.839,0.491 1.687,1.249 2.291,2.31 0.607,1.061 0.94,2.386 0.938,3.898 l 0,1.127 0,0.029 0,0.442 C 4.134,1.987 3.801,3.311 3.194,4.37 2.282,5.978 0.849,6.845 -0.334,7.251"
             style="fill:#373536;fill-opacity:1;fill-rule:nonzero;stroke:none"
             id="path66" /></g><g
           id="g68"
           transform="translate(208.062,222.5654)"><path
             d="m 0,0 -6.016,0 -0.053,-0.005 -0.061,0 c -0.262,-0.012 -1.222,0.077 -1.852,0.464 -0.321,0.194 -0.577,0.422 -0.786,0.79 -0.206,0.369 -0.396,0.917 -0.399,1.855 l 0,8.613 -4.134,0 0,-2.497 0,-6.116 c -0.003,-1.515 0.334,-2.838 0.94,-3.899 0.91,-1.607 2.345,-2.472 3.529,-2.881 1.196,-0.417 2.208,-0.459 2.702,-0.461 0.089,0 0.163,0.002 0.212,0.003 l 10.05,0 0,15.851 L 0,11.717 0,0 z"
             style="fill:#373536;fill-opacity:1;fill-rule:nonzero;stroke:none"
             id="path70" /></g><g
           id="g72"
           transform="translate(165.4756,233.9756)"><path
             d="m 0,0 c -1.197,0.415 -2.212,0.457 -2.701,0.46 -0.102,0 -0.183,-0.003 -0.24,-0.005 l -2.769,0 0,-0.001 -2.317,0 0,0.001 0,0.002 -2.812,0 c -0.051,0.001 -0.117,0.003 -0.194,0.003 -0.657,-0.012 -2.252,-0.061 -3.944,-1.031 -0.837,-0.488 -1.689,-1.247 -2.29,-2.31 -0.606,-1.062 -0.942,-2.383 -0.939,-3.902 -0.002,-4.373 -0.002,-6.683 -0.002,-8.913 l 4.137,0 c -0.004,2.23 -0.004,4.54 -0.004,8.913 0.004,0.937 0.193,1.489 0.401,1.861 0.31,0.535 0.748,0.818 1.307,1.021 0.544,0.196 1.136,0.234 1.334,0.23 0.028,0 0.047,-0.004 0.047,-0.004 l 0.005,0 0.057,-0.003 1.944,0 0,-11.994 4.129,0 0,11.994 2.044,0 0.051,0.003 c 0.004,0 0.024,0.004 0.055,0.004 0.261,0.008 1.22,-0.076 1.848,-0.466 0.327,-0.195 0.58,-0.422 0.791,-0.79 0.206,-0.365 0.395,-0.919 0.4,-1.856 -0.002,-4.373 -0.002,-6.684 -0.002,-8.913 l 4.132,0 0,8.913 C 4.473,-5.265 4.135,-3.943 3.527,-2.881 2.618,-1.273 1.181,-0.407 0,0"
             style="fill:#373536;fill-opacity:1;fill-rule:nonzero;stroke:none"
             id="path74" /></g><g
           id="g76"
           transform="translate(187.5972,226.6768)"><path
             d="M 0,0 0,-0.437 0,-1.122 C -0.005,-2.058 -0.191,-2.607 -0.398,-2.979 -0.71,-3.516 -1.149,-3.798 -1.707,-4 -2.25,-4.2 -2.845,-4.232 -3.041,-4.23 l -0.07,0 -0.051,0.004 -6.778,0.005 0,7.796 6.797,0 0.051,0.003 c 0,0 0.021,0.004 0.051,0.004 0.263,0.01 1.223,-0.075 1.852,-0.466 C -0.865,2.925 -0.612,2.696 -0.398,2.33 -0.191,1.958 -0.005,1.407 0,0.471 L 0,0.028 0,0 z m -0.335,7.253 c -1.195,0.417 -2.209,0.459 -2.706,0.461 -0.098,0 -0.177,-0.001 -0.238,-0.002 l -10.797,0 0,-4.137 0.003,0 0,-20.548 4.133,0 0,8.618 6.659,-0.004 c 0.048,-10e-4 0.13,-0.003 0.24,-0.003 0.657,0.012 2.251,0.059 3.943,1.031 0.838,0.488 1.688,1.247 2.292,2.31 0.605,1.062 0.94,2.383 0.938,3.899 l 0,1.122 0,0.028 0,0.443 C 4.134,1.988 3.799,3.31 3.194,4.372 2.28,5.981 0.845,6.847 -0.335,7.253"
             style="fill:#373536;fill-opacity:1;fill-rule:nonzero;stroke:none"
             id="path78" /></g><g
           id="g80"
           transform="translate(113.6411,222.4512)"><path
             d="m 0,0 -0.039,-0.005 -0.076,0 C -0.375,-0.016 -1.336,0.07 -1.966,0.461 -2.29,0.653 -2.541,0.882 -2.755,1.247 -2.961,1.618 -3.15,2.168 -3.152,3.104 l 0,1.122 0,0.03 0,0.44 c 0.002,0.937 0.191,1.488 0.397,1.86 0.312,0.538 0.749,0.821 1.309,1.023 0.541,0.198 1.14,0.232 1.331,0.229 0.029,0 0.047,-0.004 0.052,-0.004 l 0.049,-0.003 8.825,0 0,4.135 -8.687,0 c -0.059,0.002 -0.137,0.003 -0.239,0.003 -0.656,-0.013 -2.249,-0.061 -3.94,-1.032 C -4.893,10.422 -5.743,9.662 -6.347,8.598 -6.954,7.535 -7.289,6.214 -7.285,4.696 l 0,-0.44 0,-0.03 0,-0.437 0,-0.685 c -0.004,-1.516 0.331,-2.837 0.938,-3.899 0.912,-1.608 2.347,-2.475 3.528,-2.882 1.194,-0.417 2.21,-0.458 2.704,-0.461 0.087,0 0.155,0.003 0.204,0.003 L 8.832,-4.124 8.829,0.007 0,0 z"
             style="fill:#373536;fill-opacity:1;fill-rule:nonzero;stroke:none"
             id="path82" /></g><g
           id="g84"
           transform="translate(140.0308,226.6777)"><path
             d="M 0,0 0,-0.438 0,-1.123 C -0.001,-2.059 -0.188,-2.609 -0.398,-2.979 -0.705,-3.517 -1.145,-3.8 -1.704,-4.003 -2.251,-4.198 -2.843,-4.233 -3.038,-4.231 l -0.073,0 -0.054,0.004 -2.047,0.007 -0.011,0 -0.126,0 -2.061,-0.007 -0.037,-0.004 -0.076,0 c -0.263,-0.009 -1.223,0.077 -1.852,0.465 -0.324,0.192 -0.576,0.421 -0.789,0.787 -0.209,0.37 -0.396,0.92 -0.399,1.857 l 0,1.122 0,0.47 c 0.003,0.936 0.19,1.487 0.399,1.859 0.309,0.538 0.748,0.821 1.306,1.024 0.546,0.194 1.14,0.23 1.333,0.224 l 0.043,0 0.062,-0.003 2.214,0 2.071,0 0.044,0.003 c 0,0 0.025,0.004 0.053,0.004 0.262,0.01 1.221,-0.075 1.852,-0.466 0.324,-0.193 0.575,-0.42 0.788,-0.786 C -0.188,1.957 -0.001,1.406 0,0.471 L 0,0.029 0,0 z m -0.334,7.254 c -1.198,0.415 -2.208,0.457 -2.704,0.459 -0.1,0 -0.183,-0.002 -0.238,-0.004 l -1.93,0 0,0.002 -2.082,0 C -7.346,7.712 -7.427,7.713 -7.525,7.713 -8.181,7.698 -9.775,7.651 -11.464,6.681 -12.303,6.195 -13.155,5.436 -13.757,4.371 -14.363,3.309 -14.696,1.99 -14.694,0.47 l 0,-0.441 0,-0.467 0,-0.684 c -0.007,-1.517 0.332,-2.838 0.937,-3.9 0.912,-1.61 2.346,-2.475 3.531,-2.881 1.196,-0.417 2.205,-0.458 2.703,-0.461 0.086,0 0.159,0.001 0.206,0.003 l 1.959,0.009 2.078,-0.008 c 0.044,-0.001 0.129,-0.004 0.242,-0.004 0.656,0.013 2.246,0.06 3.94,1.032 0.841,0.488 1.688,1.246 2.292,2.31 0.607,1.062 0.94,2.383 0.939,3.899 l 0,1.123 0,0.029 0,0.442 C 4.134,1.99 3.801,3.309 3.194,4.371 2.283,5.98 0.849,6.845 -0.334,7.254"
             style="fill:#373536;fill-opacity:1;fill-rule:nonzero;stroke:none"
             id="path86" /></g><path
           d="m 988.297,186.861 -172.522,0 0,75.44 172.522,0 0,-75.44 z"
           style="fill:#373535;fill-opacity:1;fill-rule:nonzero;stroke:none"
           id="path88" /><path
           d="m 921.385,215.24 2.887,0 0,18.244 -2.887,0 0,-18.244 z"
           style="fill:#ffffff;fill-opacity:1;fill-rule:nonzero;stroke:none"
           id="path90" /><g
           id="g92"
           transform="translate(953.1563,220.6592)"><path
             d="m 0,0 5.935,5.508 -2.685,0.007 -1.767,0 -4.845,-4.404 0,11.575 -2.883,0 0,-18.057 2.883,0 0,2.901 0.878,0.652 4.081,-3.489 1.774,0 3.11,-0.004 L 0,0 z"
             style="fill:#ffffff;fill-opacity:1;fill-rule:nonzero;stroke:none"
             id="path94" /></g><g
           id="g96"
           transform="translate(926.8838,230.543)"><path
             d="m 0,0 1.04,0 0,-4.249 -1.049,0 0,-11.033 2.888,0 0,11.033 -0.999,0 0,4.249 1.002,0 0,2.925 L 0,2.925 0,0 z"
             style="fill:#ffffff;fill-opacity:1;fill-rule:nonzero;stroke:none"
             id="path98" /></g><g
           id="g100"
           transform="translate(941.4385,225.9541)"><path
             d="m 0,0 c -0.838,0.289 -1.544,0.317 -1.891,0.319 -0.067,0 -0.125,0 -0.165,-0.002 l -6.998,0 0,-11.01 2.885,0 0,8.127 4.204,-0.002 0.057,0.004 0.017,0 c 0.185,0.006 0.855,-0.053 1.292,-0.326 0.229,-0.135 0.404,-0.293 0.551,-0.55 0.149,-0.256 0.278,-0.64 0.279,-1.296 l 0,-5.983 2.885,0 0,5.983 C 3.119,-3.677 2.884,-2.753 2.46,-2.013 1.824,-0.89 0.823,-0.285 0,0"
             style="fill:#ffffff;fill-opacity:1;fill-rule:nonzero;stroke:none"
             id="path102" /></g><g
           id="g104"
           transform="translate(915.8545,218.1689)"><path
             d="m 0,0 -4.199,0 -0.04,-0.004 c -0.006,0 -0.021,0 -0.043,-0.002 -0.18,-0.008 -0.849,0.054 -1.289,0.325 -0.225,0.135 -0.404,0.293 -0.551,0.552 -0.144,0.258 -0.274,0.642 -0.278,1.294 l 0,6.014 -2.886,0 0,-1.743 0,-4.271 c -0.002,-1.058 0.235,-1.982 0.656,-2.723 0.637,-1.122 1.639,-1.724 2.465,-2.007 0.833,-0.295 1.54,-0.323 1.883,-0.326 0.066,0 0.116,0.003 0.151,0.003 l 7.018,0 0,11.067 L 0,8.179 0,0 z"
             style="fill:#ffffff;fill-opacity:1;fill-rule:nonzero;stroke:none"
             id="path106" /></g><g
           id="g108"
           transform="translate(886.124,226.1309)"><path
             d="m 0,0 c -0.835,0.292 -1.543,0.321 -1.888,0.324 -0.066,0 -0.124,-0.003 -0.164,-0.005 l -1.933,0 -1.618,0 0,0.002 -1.962,0 c -0.036,0 -0.083,0.003 -0.135,0.003 -0.46,-0.01 -1.573,-0.043 -2.755,-0.72 -0.585,-0.341 -1.178,-0.872 -1.598,-1.615 -0.424,-0.74 -0.661,-1.662 -0.653,-2.723 -0.002,-3.052 -0.002,-4.665 -0.002,-6.222 l 2.887,0 c -0.003,1.557 -0.003,3.17 -0.003,6.222 0.004,0.655 0.134,1.04 0.279,1.298 0.216,0.375 0.524,0.574 0.911,0.715 0.381,0.135 0.794,0.162 0.934,0.158 0.017,0 0.03,0 0.03,0 l 0.005,0 0.039,-0.002 1.356,0 0,-8.374 2.886,0 0,8.374 1.427,0 0.034,0.002 c 0.003,0 0.016,0 0.035,0 0.187,0.008 0.856,-0.053 1.295,-0.325 0.225,-0.133 0.404,-0.294 0.551,-0.548 C 0.101,-3.694 0.231,-4.079 0.237,-4.734 0.234,-7.786 0.234,-9.4 0.234,-10.956 l 2.888,0 0,6.222 C 3.123,-3.673 2.887,-2.752 2.464,-2.011 1.829,-0.888 0.825,-0.284 0,0"
             style="fill:#ffffff;fill-opacity:1;fill-rule:nonzero;stroke:none"
             id="path110" /></g><g
           id="g112"
           transform="translate(901.5664,221.0371)"><path
             d="M 0,0 0,-0.307 0,-0.783 C -0.002,-1.436 -0.131,-1.819 -0.277,-2.08 -0.493,-2.455 -0.799,-2.65 -1.189,-2.794 -1.57,-2.932 -1.985,-2.955 -2.12,-2.954 l -0.052,0 -0.035,0.002 -4.731,0.007 0,5.44 4.748,0 0.033,0.005 c 0,0 0.015,10e-4 0.037,10e-4 0.181,0.007 0.852,-0.053 1.294,-0.325 C -0.604,2.04 -0.427,1.882 -0.277,1.626 -0.131,1.367 -0.002,0.984 0,0.328 L 0,0.02 0,0 z m -0.232,5.063 c -0.835,0.29 -1.543,0.32 -1.888,0.323 -0.07,0 -0.125,0 -0.166,-0.003 l -7.537,0 0,-2.888 0.001,0 0,-14.346 2.884,0 0,6.021 4.65,-0.003 c 0.032,-10e-4 0.088,-0.004 0.168,-0.004 0.457,0.008 1.57,0.04 2.752,0.718 0.585,0.342 1.181,0.87 1.6,1.615 0.422,0.739 0.656,1.661 0.654,2.721 l 0,0.783 0,0.02 0,0.308 C 2.888,1.389 2.654,2.313 2.232,3.053 1.595,4.176 0.593,4.78 -0.232,5.063"
             style="fill:#ffffff;fill-opacity:1;fill-rule:nonzero;stroke:none"
             id="path114" /></g><g
           id="g116"
           transform="translate(849.9395,218.085)"><path
             d="m 0,0 -0.028,0 c -0.008,0 -0.029,0 -0.054,-0.002 -0.182,-0.005 -0.854,0.054 -1.292,0.325 -0.225,0.135 -0.402,0.293 -0.549,0.549 -0.146,0.261 -0.274,0.645 -0.28,1.297 l 0,0.784 0,0.02 0,0.307 c 0.006,0.657 0.134,1.039 0.28,1.298 0.214,0.377 0.523,0.573 0.911,0.716 0.381,0.136 0.798,0.16 0.93,0.159 0.021,0 0.035,-0.001 0.037,-0.001 l 0.033,-0.005 6.162,0 0,2.886 -6.066,0 C 0.045,8.338 -0.012,8.338 -0.082,8.338 -0.539,8.328 -1.649,8.297 -2.832,7.618 -3.414,7.277 -4.012,6.747 -4.433,6.005 -4.855,5.265 -5.089,4.341 -5.088,3.28 l 0,-0.307 0,-0.02 0,-0.307 0,-0.477 c -0.001,-1.06 0.233,-1.98 0.655,-2.72 0.638,-1.123 1.64,-1.728 2.465,-2.014 0.833,-0.289 1.542,-0.317 1.886,-0.32 0.062,0 0.109,0.003 0.145,0.003 L 6.167,-2.877 6.163,0.008 0,0 z"
             style="fill:#ffffff;fill-opacity:1;fill-rule:nonzero;stroke:none"
             id="path118" /></g><g
           id="g120"
           transform="translate(868.3623,221.0381)"><path
             d="m 0,0 0,-0.308 0,-0.476 c -0.002,-0.653 -0.131,-1.038 -0.278,-1.297 -0.215,-0.372 -0.521,-0.57 -0.911,-0.714 -0.381,-0.137 -0.794,-0.16 -0.932,-0.158 l -0.053,0 -0.035,0 -1.432,0.007 -0.006,0 -0.088,0.001 0,-0.001 -1.436,-0.007 -0.029,-0.002 -0.053,0 c -0.184,-0.005 -0.853,0.056 -1.292,0.325 -0.227,0.134 -0.402,0.293 -0.554,0.549 -0.142,0.259 -0.275,0.644 -0.275,1.297 C -7.375,-0.6 -7.375,-0.095 -7.375,0 l 0.001,0 0,0.327 c 0,0.656 0.133,1.039 0.275,1.298 0.219,0.377 0.524,0.573 0.916,0.716 0.378,0.136 0.792,0.16 0.929,0.159 l 0.028,0 0.045,-0.006 1.547,0 1.444,0 0.033,0.005 c 0,0 0.015,10e-4 0.036,10e-4 0.182,0.007 0.851,-0.053 1.292,-0.325 0.227,-0.136 0.402,-0.294 0.551,-0.55 C -0.131,1.366 -0.002,0.983 0,0.328 L 0,0.02 0,0 z m -0.234,5.064 c -0.837,0.288 -1.543,0.318 -1.887,0.321 -0.07,0 -0.127,-0.003 -0.165,-0.005 l -1.348,0 0,0.002 -1.454,0 C -5.126,5.385 -5.184,5.385 -5.254,5.385 -5.71,5.375 -6.823,5.344 -8.004,4.665 -8.592,4.324 -9.184,3.794 -9.604,3.052 -10.027,2.308 -10.26,1.388 -10.259,0.327 l 0,-0.308 0,-0.327 0,-0.476 c -0.003,-1.06 0.232,-1.982 0.655,-2.721 0.636,-1.125 1.637,-1.729 2.463,-2.011 0.835,-0.292 1.543,-0.319 1.888,-0.322 0.06,0 0.111,0 0.144,0.003 l 1.366,0.005 1.451,-0.004 c 0.036,-0.001 0.092,-0.004 0.171,-0.004 0.457,0.008 1.569,0.04 2.753,0.718 0.583,0.342 1.178,0.87 1.598,1.615 0.423,0.739 0.656,1.661 0.655,2.721 l 0,0.784 0,0.02 0,0.308 C 2.886,1.388 2.653,2.312 2.23,3.052 1.592,4.175 0.592,4.778 -0.234,5.064"
             style="fill:#ffffff;fill-opacity:1;fill-rule:nonzero;stroke:none"
             id="path122" /></g><path
           d="m 530.106,186.976 -173.583,0 0,75.905 173.583,0 0,-75.905 z"
           style="fill:#373535;fill-opacity:1;fill-rule:nonzero;stroke:none"
           id="path124" /><path
           d="m 462.786,215.533 2.904,0 0,18.352 -2.904,0 0,-18.352 z"
           style="fill:#40a4dc;fill-opacity:1;fill-rule:nonzero;stroke:none"
           id="path126" /><g
           id="g128"
           transform="translate(494.7524,220.9805)"><path
             d="m 0,0 5.968,5.547 -2.699,0.003 -1.777,0 -4.881,-4.432 0,11.65 -2.897,0 0,-18.168 2.897,0 0,2.916 0.884,0.658 4.112,-3.509 1.786,0 L 6.52,-5.34 0,0 z"
             style="fill:#40a4dc;fill-opacity:1;fill-rule:nonzero;stroke:none"
             id="path130" /></g><g
           id="g132"
           transform="translate(468.313,230.9268)"><path
             d="m 0,0 1.05,0 0,-4.279 -1.054,0 0,-11.098 2.904,0 0,11.098 -1.01,0 0,4.279 1.013,0 0,2.941 L 0,2.941 0,0 z"
             style="fill:#40a4dc;fill-opacity:1;fill-rule:nonzero;stroke:none"
             id="path134" /></g><g
           id="g136"
           transform="translate(482.9609,226.3057)"><path
             d="m 0,0 c -0.845,0.295 -1.551,0.324 -1.899,0.325 -0.072,0 -0.13,-0.001 -0.167,-0.001 l -7.047,0 0,-11.08 2.911,0 0,8.176 4.225,-0.005 0.058,0.005 0.02,0 c 0.188,0.011 0.859,-0.049 1.299,-0.325 0.224,-0.136 0.403,-0.297 0.555,-0.551 0.143,-0.26 0.276,-0.646 0.28,-1.305 l 0,-6.021 2.899,0 0,6.021 C 3.139,-3.695 2.903,-2.767 2.476,-2.021 1.84,-0.896 0.831,-0.284 0,0"
             style="fill:#40a4dc;fill-opacity:1;fill-rule:nonzero;stroke:none"
             id="path138" /></g><g
           id="g140"
           transform="translate(457.2183,218.4756)"><path
             d="m 0,0 -4.226,0 -0.038,-0.003 -0.044,0 c -0.178,-0.01 -0.855,0.053 -1.294,0.321 -0.231,0.14 -0.406,0.3 -0.556,0.559 -0.145,0.259 -0.277,0.643 -0.282,1.302 l 0,6.05 -2.903,0 0,-1.754 0,-4.296 c -0.002,-1.066 0.237,-1.994 0.665,-2.738 0.633,-1.125 1.643,-1.735 2.474,-2.02 0.846,-0.298 1.554,-0.321 1.896,-0.325 0.068,0 0.117,0.004 0.152,0.004 l 7.059,0 0,11.129 L 0,8.229 0,0 z"
             style="fill:#ffffff;fill-opacity:1;fill-rule:nonzero;stroke:none"
             id="path142" /></g><g
           id="g144"
           transform="translate(427.3091,226.4893)"><path
             d="m 0,0 c -0.844,0.293 -1.557,0.323 -1.899,0.323 -0.072,0 -0.126,0 -0.167,-0.004 l -1.945,0 -1.63,0 0,0.004 -1.976,0 -0.135,0 c -0.461,-0.01 -1.581,-0.037 -2.769,-0.722 -0.588,-0.349 -1.186,-0.875 -1.606,-1.623 -0.431,-0.751 -0.664,-1.679 -0.66,-2.742 l 0,-6.261 2.9,0 0,6.261 c 0.003,0.659 0.137,1.049 0.281,1.306 0.217,0.375 0.526,0.575 0.916,0.722 0.385,0.133 0.802,0.165 0.938,0.155 l 0.029,0 0.011,0 0.039,-0.003 1.366,0 0,-8.428 2.898,0 0,8.428 1.436,0 0.035,0.003 0.039,0 c 0.184,0.013 0.857,-0.05 1.301,-0.327 0.226,-0.131 0.405,-0.293 0.551,-0.55 0.145,-0.257 0.279,-0.647 0.282,-1.306 l 0,-6.261 2.906,0 0,6.261 C 3.144,-3.701 2.904,-2.773 2.476,-2.022 1.839,-0.895 0.83,-0.288 0,0"
             style="fill:#ffffff;fill-opacity:1;fill-rule:nonzero;stroke:none"
             id="path146" /></g><g
           id="g148"
           transform="translate(442.8472,221.3633)"><path
             d="M 0,0 0,-0.31 0,-0.79 C -0.005,-1.445 -0.134,-1.829 -0.281,-2.094 -0.5,-2.469 -0.808,-2.663 -1.2,-2.813 -1.584,-2.952 -1.997,-2.975 -2.14,-2.972 l -0.048,0 -0.031,0 -4.762,0.006 0,5.475 4.774,0 0.032,0.005 0.035,0 C -1.953,2.523 -1.276,2.461 -0.835,2.188 -0.61,2.051 -0.428,1.892 -0.281,1.636 -0.134,1.375 -0.005,0.992 0,0.329 L 0,0.017 0,0 z m -0.238,5.093 c -0.843,0.295 -1.552,0.323 -1.902,0.326 -0.067,0 -0.123,-0.003 -0.161,-0.003 l -7.59,0 0,-2.907 0.006,0 0,-14.438 2.904,0 0,6.06 4.68,-0.001 c 0.027,0 0.088,-0.006 0.161,-0.006 0.465,0.009 1.587,0.046 2.77,0.727 0.589,0.34 1.192,0.872 1.611,1.62 0.428,0.746 0.665,1.675 0.66,2.739 l 0,0.79 0,0.017 0,0.312 C 2.906,1.391 2.669,2.322 2.241,3.072 1.604,4.199 0.597,4.811 -0.238,5.093"
             style="fill:#ffffff;fill-opacity:1;fill-rule:nonzero;stroke:none"
             id="path150" /></g><g
           id="g152"
           transform="translate(390.9004,218.3916)"><path
             d="M 0,0 -0.027,0 -0.081,0 C -0.263,-0.005 -0.938,0.057 -1.386,0.328 -1.611,0.464 -1.788,0.621 -1.937,0.877 -2.082,1.143 -2.21,1.526 -2.216,2.182 l 0,0.792 0,0.018 0,0.309 c 0.006,0.663 0.134,1.046 0.279,1.306 0.218,0.38 0.526,0.573 0.92,0.717 0.383,0.143 0.801,0.162 0.936,0.161 l 0.04,0 0.03,-0.005 6.201,0 0,2.907 -6.106,0 C 0.043,8.388 -0.011,8.391 -0.081,8.391 -0.542,8.384 -1.661,8.346 -2.848,7.668 -3.434,7.325 -4.035,6.79 -4.459,6.044 -4.882,5.294 -5.123,4.362 -5.117,3.301 l 0,-0.309 0,-0.018 0,-0.312 0,-0.48 c -0.006,-1.064 0.235,-1.989 0.658,-2.74 0.641,-1.127 1.648,-1.735 2.48,-2.025 0.838,-0.291 1.548,-0.315 1.898,-0.321 0.062,0 0.11,0.006 0.147,0.006 L 6.2,-2.896 6.198,0.01 0,0 z"
             style="fill:#ffffff;fill-opacity:1;fill-rule:nonzero;stroke:none"
             id="path154" /></g><g
           id="g156"
           transform="translate(409.438,221.3652)"><path
             d="m 0,0 0,-0.312 0,-0.48 C -0.003,-1.447 -0.129,-1.835 -0.281,-2.096 -0.497,-2.471 -0.807,-2.665 -1.199,-2.815 -1.58,-2.951 -2,-2.974 -2.138,-2.974 l -0.047,0 -0.044,0 -1.435,0.01 -0.007,0 -0.088,0 -1.444,-0.01 -0.034,0 -0.05,0 c -0.184,-0.005 -0.856,0.057 -1.296,0.328 -0.236,0.136 -0.408,0.293 -0.559,0.549 -0.148,0.262 -0.278,0.65 -0.278,1.305 l 0,0.792 0,0.327 c 0,0.663 0.13,1.046 0.278,1.307 0.219,0.38 0.528,0.572 0.918,0.717 0.384,0.14 0.804,0.162 0.936,0.161 l 0.03,0 0.043,-0.005 1.552,0 1.459,0 0.034,0.005 0.032,0 C -1.955,2.521 -1.276,2.459 -0.834,2.186 -0.603,2.049 -0.43,1.89 -0.281,1.634 -0.129,1.373 -0.003,0.99 0,0.33 L 0,0.019 0,0 z m -0.238,5.091 c -0.84,0.295 -1.55,0.323 -1.9,0.326 -0.067,0 -0.124,-0.003 -0.162,-0.004 l -1.363,0 0,10e-4 -1.457,0 c -0.039,0 -0.098,0.003 -0.168,0.003 C -5.747,5.41 -6.866,5.372 -8.053,4.694 -8.644,4.352 -9.241,3.816 -9.665,3.069 -10.089,2.317 -10.326,1.394 -10.323,0.327 l 0,-0.311 0,-0.328 0,-0.48 c -0.003,-1.063 0.234,-1.993 0.658,-2.739 0.644,-1.133 1.649,-1.736 2.479,-2.021 0.842,-0.296 1.552,-0.32 1.899,-0.326 0.058,0 0.116,0 0.143,0.006 l 1.379,0.003 1.459,-0.003 c 0.032,0 0.089,-0.006 0.168,-0.006 0.461,0.009 1.58,0.046 2.77,0.727 0.59,0.34 1.182,0.872 1.609,1.62 0.429,0.746 0.662,1.676 0.659,2.739 l 0,0.792 0,0.019 0,0.311 C 2.903,1.394 2.67,2.32 2.241,3.07 1.601,4.197 0.592,4.808 -0.238,5.091"
             style="fill:#ffffff;fill-opacity:1;fill-rule:nonzero;stroke:none"
             id="path158" /></g><path
           d="m 725.953,186.687 -173.58,0 0,75.902 173.58,0 0,-75.902 z"
           style="fill:#40a4dc;fill-opacity:1;fill-rule:nonzero;stroke:none"
           id="path160" /><path
           d="m 658.634,215.244 2.904,0 0,18.352 -2.904,0 0,-18.352 z"
           style="fill:#ffffff;fill-opacity:1;fill-rule:nonzero;stroke:none"
           id="path162" /><g
           id="g164"
           transform="translate(690.5977,220.6914)"><path
             d="m 0,0 5.971,5.543 -2.7,0.006 -1.777,0 -4.877,-4.43 0,11.649 -2.9,0 0,-18.17 2.9,0 0,2.917 0.882,0.655 4.106,-3.503 1.786,0 3.13,-0.009 L 0,0 z"
             style="fill:#ffffff;fill-opacity:1;fill-rule:nonzero;stroke:none"
             id="path166" /></g><g
           id="g168"
           transform="translate(664.1641,230.6357)"><path
             d="m 0,0 1.046,0 0,-4.276 -1.054,0 0,-11.099 2.904,0 0,11.099 -1.004,0 0,4.276 1.009,0 0,2.941 L 0,2.941 0,0 z"
             style="fill:#ffffff;fill-opacity:1;fill-rule:nonzero;stroke:none"
             id="path170" /></g><g
           id="g172"
           transform="translate(678.8096,226.0215)"><path
             d="m 0,0 c -0.844,0.289 -1.553,0.317 -1.901,0.319 -0.071,0 -0.128,0 -0.168,-0.002 l -7.04,0 0,-11.078 2.901,0 0,8.179 4.229,-0.003 0.057,0.003 0.021,0 c 0.185,0.008 0.856,-0.053 1.3,-0.328 0.226,-0.136 0.404,-0.293 0.554,-0.549 0.145,-0.261 0.277,-0.647 0.279,-1.308 l 0,-6.021 2.902,0 0,6.021 C 3.138,-3.7 2.902,-2.773 2.475,-2.026 1.836,-0.897 0.827,-0.289 0,0"
             style="fill:#ffffff;fill-opacity:1;fill-rule:nonzero;stroke:none"
             id="path174" /></g><g
           id="g176"
           transform="translate(653.0703,218.1836)"><path
             d="m 0,0 -4.23,0 -0.038,-0.001 c -0.006,0 -0.02,0 -0.043,-0.001 -0.181,-0.008 -0.859,0.056 -1.298,0.324 -0.227,0.14 -0.406,0.299 -0.553,0.555 -0.145,0.265 -0.277,0.648 -0.282,1.304 l 0,6.051 -2.903,0 0,-1.754 0,-4.297 c -0.001,-1.062 0.236,-1.991 0.662,-2.737 0.642,-1.129 1.648,-1.738 2.479,-2.023 0.843,-0.295 1.554,-0.319 1.895,-0.325 0.065,0 0.119,0.006 0.152,0.006 l 7.058,0 0,11.13 L 0,8.232 0,0 z"
             style="fill:#ffffff;fill-opacity:1;fill-rule:nonzero;stroke:none"
             id="path178" /></g><g
           id="g180"
           transform="translate(623.1543,226.1973)"><path
             d="m 0,0 c -0.841,0.296 -1.551,0.326 -1.9,0.327 -0.068,0 -0.124,-0.001 -0.165,-0.001 l -1.944,0 0,-0.001 -1.627,0 0,0.001 -1.976,0 c -0.036,0 -0.083,0.001 -0.138,0.001 -0.46,-0.008 -1.582,-0.042 -2.771,-0.723 -0.584,-0.344 -1.182,-0.88 -1.603,-1.624 -0.43,-0.75 -0.666,-1.677 -0.661,-2.743 l 0,-6.26 2.901,0 0,6.26 c 0.003,0.66 0.134,1.048 0.281,1.308 0.218,0.375 0.526,0.574 0.915,0.719 0.384,0.134 0.8,0.164 0.938,0.161 0.02,0 0.033,-10e-4 0.033,-10e-4 l 0.005,10e-4 0.042,-0.007 1.362,0 0,-8.427 2.901,0 0,8.427 1.436,0 0.034,0.006 c 0.009,0 0.017,10e-4 0.037,10e-4 0.189,0.007 0.861,-0.054 1.304,-0.329 0.226,-0.135 0.408,-0.296 0.551,-0.552 0.146,-0.259 0.279,-0.647 0.283,-1.307 l 0,-6.26 2.902,0 0,6.26 C 3.143,-3.697 2.906,-2.77 2.479,-2.02 1.841,-0.894 0.83,-0.285 0,0"
             style="fill:#ffffff;fill-opacity:1;fill-rule:nonzero;stroke:none"
             id="path182" /></g><g
           id="g184"
           transform="translate(638.6914,221.0703)"><path
             d="m 0,0 0,-0.305 0,-0.481 c -0.001,-0.656 -0.134,-1.04 -0.279,-1.305 -0.219,-0.374 -0.526,-0.572 -0.917,-0.717 -0.384,-0.139 -0.798,-0.161 -0.939,-0.16 l -0.05,0 -0.035,0.003 -4.759,0.003 0,5.477 4.776,0 0.032,0.003 c 0,0 0.017,0.003 0.036,0.003 C -1.95,2.525 -1.274,2.467 -0.83,2.194 -0.604,2.059 -0.428,1.896 -0.279,1.64 -0.134,1.378 -0.001,0.992 0,0.334 L 0,0.021 0,0 z m -0.234,5.097 c -0.841,0.292 -1.554,0.322 -1.901,0.326 -0.068,0 -0.124,0 -0.164,-0.004 l -7.585,0 0,-2.904 0.003,0 0,-14.436 2.902,0 0,6.058 4.679,-0.004 c 0.031,0 0.088,-0.006 0.165,-0.006 0.463,0.011 1.583,0.047 2.77,0.724 0.59,0.345 1.189,0.877 1.61,1.627 0.428,0.742 0.662,1.672 0.658,2.736 l 0,0.786 0,0.021 0,0.313 C 2.907,1.399 2.673,2.327 2.245,3.076 1.606,4.202 0.596,4.813 -0.234,5.097"
             style="fill:#ffffff;fill-opacity:1;fill-rule:nonzero;stroke:none"
             id="path186" /></g><g
           id="g188"
           transform="translate(586.748,218.1045)"><path
             d="M 0,0 -0.026,0 C -0.039,0 -0.056,0 -0.083,-0.002 -0.265,-0.007 -0.939,0.051 -1.384,0.321 -1.61,0.458 -1.788,0.62 -1.936,0.875 -2.081,1.14 -2.211,1.523 -2.214,2.18 l 0,0.787 0,0.02 0,0.313 c 0.003,0.658 0.133,1.044 0.278,1.305 0.218,0.377 0.526,0.579 0.917,0.718 0.385,0.141 0.804,0.164 0.936,0.164 0.023,0 0.034,-0.004 0.041,-0.004 l 0.03,-0.003 6.2,0 0,2.902 -6.103,0 C 0.044,8.389 -0.012,8.389 -0.083,8.389 -0.543,8.378 -1.66,8.348 -2.85,7.663 -3.433,7.319 -4.036,6.785 -4.457,6.042 -4.885,5.293 -5.122,4.365 -5.118,3.3 l 0,-0.313 0,-0.02 0,-0.306 0,-0.481 c -0.004,-1.064 0.233,-1.994 0.661,-2.737 0.636,-1.13 1.644,-1.736 2.478,-2.027 0.839,-0.292 1.549,-0.317 1.896,-0.323 0.066,0 0.11,0.006 0.146,0.006 L 6.204,-2.896 6.2,0.007 0,0 z"
             style="fill:#ffffff;fill-opacity:1;fill-rule:nonzero;stroke:none"
             id="path190" /></g><g
           id="g192"
           transform="translate(605.2852,221.0713)"><path
             d="m 0,0 0,-0.306 0,-0.481 c -0.003,-0.656 -0.134,-1.042 -0.282,-1.305 -0.216,-0.374 -0.524,-0.572 -0.917,-0.717 -0.381,-0.137 -0.798,-0.16 -0.939,-0.158 l -0.05,0 -0.037,0 -1.438,0.007 -0.01,0 -0.088,0 -1.443,-0.006 -0.029,-0.003 -0.052,0 c -0.185,-0.005 -0.86,0.056 -1.297,0.323 -0.234,0.137 -0.407,0.299 -0.559,0.554 -0.146,0.263 -0.281,0.649 -0.284,1.305 l 0,0.787 0,0.333 c 0.003,0.658 0.138,1.044 0.284,1.306 0.219,0.377 0.526,0.578 0.916,0.717 0.383,0.138 0.803,0.165 0.935,0.165 l 0.033,0 0.043,-0.007 1.553,0 1.456,0 0.036,0.003 c 0,0 0.014,0.004 0.031,0.004 0.185,0.003 0.864,-0.055 1.304,-0.328 C -0.605,2.058 -0.43,1.895 -0.282,1.639 -0.134,1.377 -0.003,0.991 0,0.335 L 0,0.021 0,0 z m -0.238,5.102 c -0.841,0.286 -1.551,0.316 -1.9,0.32 -0.07,0 -0.125,-0.004 -0.164,-0.007 l -1.359,0 0,0.003 -1.459,0 C -5.159,5.422 -5.217,5.422 -5.29,5.422 -5.745,5.411 -6.867,5.381 -8.055,4.696 -8.643,4.353 -9.241,3.818 -9.664,3.072 -10.089,2.323 -10.324,1.398 -10.32,0.333 l 0,-0.312 0,-0.327 0,-0.481 c -0.004,-1.064 0.231,-1.994 0.656,-2.736 0.641,-1.133 1.647,-1.737 2.476,-2.025 0.845,-0.295 1.555,-0.32 1.903,-0.326 0.057,0 0.111,0 0.141,0.006 l 1.379,0.005 1.459,-0.005 c 0.032,0 0.092,-0.006 0.168,-0.006 0.461,0.011 1.581,0.047 2.771,0.724 0.587,0.345 1.182,0.877 1.609,1.627 0.425,0.742 0.659,1.672 0.659,2.736 l 0,0.787 0,0.021 0,0.314 c 0,1.063 -0.234,1.991 -0.659,2.74 -0.64,1.126 -1.647,1.733 -2.48,2.027"
             style="fill:#ffffff;fill-opacity:1;fill-rule:nonzero;stroke:none"
             id="path194" /></g><path
           d="m 918.917,313.611 2.888,0 0,18.269 -2.888,0 0,-18.269 z"
           style="fill:#292929;fill-opacity:1;fill-rule:nonzero;stroke:none"
           id="path196" /><g
           id="g198"
           transform="translate(950.7305,319.0371)"><path
             d="m 0,0 5.943,5.516 -2.684,0.007 -1.772,0 -4.85,-4.411 0,11.592 -2.89,0 0,-18.082 2.89,0 0,2.904 0.874,0.653 4.089,-3.491 1.777,0 L 6.491,-5.318 0,0 z"
             style="fill:#292929;fill-opacity:1;fill-rule:nonzero;stroke:none"
             id="path200" /></g><g
           id="g202"
           transform="translate(924.4209,328.936)"><path
             d="m 0,0 1.041,0 0,-4.256 -1.049,0 0,-11.049 2.891,0 0,11.049 -1,0 0,4.256 1.005,0 0,2.926 L 0,2.926 0,0 z"
             style="fill:#292929;fill-opacity:1;fill-rule:nonzero;stroke:none"
             id="path204" /></g><g
           id="g206"
           transform="translate(938.9961,324.3384)"><path
             d="m 0,0 c -0.839,0.291 -1.545,0.32 -1.893,0.321 -0.066,0 -0.124,0 -0.165,-0.001 l -7.007,0 0,-11.028 2.891,0 0,8.14 4.208,-10e-4 0.055,0.003 0.018,0 c 0.183,0.007 0.855,-0.054 1.296,-0.325 0.227,-0.137 0.404,-0.295 0.551,-0.552 0.148,-0.256 0.278,-0.643 0.279,-1.3 l 0,-5.991 2.89,0 0,5.991 C 3.124,-3.682 2.889,-2.755 2.468,-2.013 1.83,-0.89 0.824,-0.284 0,0"
             style="fill:#292929;fill-opacity:1;fill-rule:nonzero;stroke:none"
             id="path208" /></g><g
           id="g210"
           transform="translate(913.376,316.5439)"><path
             d="m 0,0 -4.207,0 -0.034,-0.003 c -0.011,0 -0.025,0 -0.044,-0.003 -0.183,-0.005 -0.854,0.053 -1.295,0.326 -0.225,0.137 -0.403,0.295 -0.55,0.549 -0.144,0.261 -0.276,0.644 -0.277,1.3 l 0,6.019 -2.893,0 0,-1.744 0,-4.275 c -10e-4,-1.061 0.235,-1.985 0.66,-2.728 0.636,-1.122 1.639,-1.729 2.466,-2.014 0.836,-0.29 1.542,-0.318 1.889,-0.321 0.063,0 0.113,0.003 0.148,0.003 l 7.029,0 0,11.079 L 0,8.188 0,0 z"
             style="fill:#292929;fill-opacity:1;fill-rule:nonzero;stroke:none"
             id="path212" /></g><g
           id="g214"
           transform="translate(883.6045,324.5181)"><path
             d="m 0,0 c -0.836,0.291 -1.546,0.322 -1.89,0.323 -0.069,0 -0.127,-0.001 -0.166,-0.004 l -1.934,0 0,-0.003 -1.623,0 0,0.003 0,0.003 -1.966,0 c -0.034,0 -0.081,0.001 -0.135,0.001 -0.459,-0.008 -1.576,-0.042 -2.757,-0.721 -0.583,-0.342 -1.18,-0.872 -1.6,-1.617 -0.423,-0.74 -0.657,-1.664 -0.656,-2.725 l 0,-6.235 2.89,0 c -0.003,1.562 -0.003,3.177 -0.003,6.235 0.003,0.654 0.136,1.04 0.28,1.298 0.218,0.376 0.524,0.575 0.914,0.716 0.38,0.137 0.794,0.162 0.932,0.16 0.02,0 0.033,-0.002 0.033,-0.002 l 0.004,0.002 0.04,-0.005 1.359,0 0,-8.382 2.889,0 0,8.382 1.429,0 0.034,0.003 c 0.004,0 0.017,0.002 0.036,0.002 0.183,0.006 0.855,-0.054 1.295,-0.325 0.226,-0.135 0.402,-0.294 0.552,-0.551 C 0.102,-3.7 0.231,-4.086 0.236,-4.74 0.232,-7.797 0.232,-9.414 0.232,-10.975 l 2.892,0 0,6.235 C 3.127,-3.679 2.892,-2.756 2.466,-2.015 1.83,-0.891 0.824,-0.285 0,0"
             style="fill:#292929;fill-opacity:1;fill-rule:nonzero;stroke:none"
             id="path216" /></g><g
           id="g218"
           transform="translate(899.0693,319.4165)"><path
             d="m 0,0 0,-0.307 0,-0.476 c -0.003,-0.655 -0.134,-1.04 -0.279,-1.299 -0.214,-0.375 -0.524,-0.573 -0.914,-0.716 -0.38,-0.138 -0.797,-0.163 -0.932,-0.159 l -0.054,0 -0.031,0.003 -4.736,0.004 0,5.45 4.751,0 0.033,0.004 c 0,0 0.015,10e-4 0.037,10e-4 C -1.942,2.512 -1.269,2.452 -0.83,2.179 -0.603,2.044 -0.427,1.885 -0.279,1.628 -0.134,1.37 -0.003,0.983 0,0.33 L 0,0.021 0,0 z m -0.234,5.07 c -0.837,0.292 -1.544,0.321 -1.891,0.323 -0.07,0 -0.124,-10e-4 -0.167,-0.002 l -7.548,0 0,-2.891 0.003,0 0,-14.366 2.891,0 0,6.026 4.654,-0.003 c 0.032,-0.003 0.09,-0.003 0.167,-0.003 0.46,0.006 1.571,0.04 2.757,0.719 0.586,0.342 1.178,0.873 1.602,1.616 0.421,0.743 0.655,1.667 0.654,2.728 l 0,0.783 0,0.021 0,0.309 C 2.889,1.391 2.655,2.315 2.234,3.057 1.594,4.181 0.592,4.787 -0.234,5.07"
             style="fill:#292929;fill-opacity:1;fill-rule:nonzero;stroke:none"
             id="path220" /></g><g
           id="g222"
           transform="translate(847.3682,316.4614)"><path
             d="m 0,0 -0.029,-0.001 -0.052,0 c -0.184,-0.009 -0.854,0.05 -1.294,0.323 -0.225,0.137 -0.403,0.294 -0.551,0.55 -0.145,0.26 -0.276,0.645 -0.281,1.3 l 0,0.784 0,0.02 0,0.309 c 0.005,0.653 0.136,1.041 0.281,1.298 0.216,0.377 0.523,0.576 0.911,0.717 0.381,0.137 0.798,0.163 0.934,0.16 0.02,0 0.032,-0.001 0.037,-0.001 l 0.032,-0.003 6.169,0 0,2.89 -6.073,0 C 0.047,8.347 -0.012,8.348 -0.081,8.348 -0.541,8.34 -1.654,8.305 -2.836,7.626 -3.421,7.287 -4.018,6.755 -4.439,6.012 -4.861,5.271 -5.096,4.346 -5.095,3.285 l 0,-0.309 0,-0.02 0,-0.307 0,-0.477 c -0.001,-1.061 0.234,-1.984 0.656,-2.726 0.637,-1.125 1.64,-1.731 2.467,-2.014 0.834,-0.292 1.545,-0.32 1.891,-0.323 0.061,0 0.107,0 0.143,0.003 L 6.172,-2.885 6.169,0.005 0,0 z"
             style="fill:#292929;fill-opacity:1;fill-rule:nonzero;stroke:none"
             id="path224" /></g><g
           id="g226"
           transform="translate(865.8154,319.417)"><path
             d="M 0,0 0,-0.306 0,-0.785 C -0.001,-1.439 -0.132,-1.824 -0.277,-2.083 -0.492,-2.458 -0.801,-2.656 -1.19,-2.799 -1.573,-2.937 -1.987,-2.958 -2.124,-2.957 l -0.052,0 -0.034,10e-4 -1.434,0.006 -0.007,0 -0.09,0 -1.437,-0.005 -0.029,-0.002 -0.051,0 c -0.184,-0.008 -0.854,0.051 -1.295,0.323 -0.225,0.135 -0.403,0.295 -0.553,0.55 -0.143,0.26 -0.277,0.645 -0.277,1.3 -0.001,0.182 -0.001,0.689 -0.001,0.784 l 0.001,0 0,0.329 c 0,0.654 0.134,1.041 0.277,1.298 0.217,0.378 0.524,0.576 0.914,0.718 0.381,0.135 0.796,0.162 0.934,0.159 l 0.028,0 0.042,-0.006 1.55,0 0,0.002 1.446,0 0.031,0.004 c 0,0 0.018,0 0.037,0 0.184,0.007 0.853,-0.053 1.296,-0.326 0.224,-0.135 0.403,-0.293 0.551,-0.55 C -0.132,1.37 -0.001,0.983 0,0.329 L 0,0.02 0,0 z m -0.232,5.071 c -0.837,0.29 -1.544,0.319 -1.892,0.321 -0.071,0 -0.126,-0.001 -0.165,-0.002 l -1.349,0 -1.456,0 C -5.134,5.392 -5.19,5.392 -5.258,5.392 -5.719,5.384 -6.832,5.35 -8.015,4.671 -8.6,4.331 -9.195,3.8 -9.616,3.056 -10.04,2.314 -10.274,1.39 -10.273,0.329 l 0,-0.309 0,-0.326 0,-0.478 c -0.003,-1.06 0.233,-1.985 0.657,-2.728 0.636,-1.123 1.64,-1.729 2.466,-2.012 0.839,-0.292 1.545,-0.321 1.892,-0.322 0.058,0 0.11,0 0.142,0.001 l 1.371,0.004 1.451,-0.002 c 0.035,-0.003 0.091,-0.003 0.17,-0.003 0.459,0.005 1.572,0.04 2.756,0.718 0.587,0.343 1.181,0.873 1.602,1.616 0.424,0.743 0.658,1.668 0.656,2.727 l 0,0.785 0,0.02 0,0.309 C 2.892,1.39 2.658,2.315 2.234,3.056 1.597,4.18 0.594,4.787 -0.232,5.071"
             style="fill:#292929;fill-opacity:1;fill-rule:nonzero;stroke:none"
             id="path228" /></g><text
           transform="matrix(1,0,0,-1,817.0771,408.5942)"
           id="text230"><tspan
             style="fill:#8e9092;fill-opacity:1;fill-rule:nonzero;stroke:none;font-family:Helios;font-variant:normal;font-weight:normal;font-stretch:normal;font-size:11.2754;writing-mode:lr;-inkscape-font-specification:Helios"
             x="0 9.4938868 15.8306616 22.0885086 28.0870214 33.769823 40.1178732 46.454648 54.3925296 60.6503766 68.836317 75.0603378 78.2174498 84.3625428 90.5865636 96.9346138 102.6850678 109.145872 -346.2449832 -338.0139412 -332.2634872 -326.0056402 -319.9169242 -313.4899462 -307.6605644 -301.9777628 -295.640988 -289.495895 -283.1703956 -276.9125486 -270.4517444 -264.2277236 -261.0706116 -251.7007542 -245.3639794 -239.1061324 -716.9237582 -713.7666462 -705.4905026 -699.3454096 -693.1213888 -687.9798064 -681.6430316 -675.4979386 -667.3119982 -661.0879774 -654.7737534 -648.6286604 -642.303161 -635.9551108 -629.4943066 -623.1688072 -616.7192784 -610.2584742 -603.79767"
             y="0"
             sodipodi:role="line"
             id="tspan232">Монохромные версииИспользование фона Цветовые вариации </tspan></text>
</g></g></g></svg>