<?xml version="1.0" encoding="UTF-8" standalone="no"?>
<!-- Created with Inkscape (http://www.inkscape.org/) -->

<svg
   xmlns:dc="http://purl.org/dc/elements/1.1/"
   xmlns:cc="http://creativecommons.org/ns#"
   xmlns:rdf="http://www.w3.org/1999/02/22-rdf-syntax-ns#"
   xmlns:svg="http://www.w3.org/2000/svg"
   xmlns="http://www.w3.org/2000/svg"
   xmlns:sodipodi="http://sodipodi.sourceforge.net/DTD/sodipodi-0.dtd"
   xmlns:inkscape="http://www.inkscape.org/namespaces/inkscape"
   id="svg2"
   version="1.1"
   inkscape:version="0.48.5 r10040"
   width="51.015625"
   height="51.015625"
   xml:space="preserve"
   sodipodi:docname="compulink_icon.svg"><metadata
     id="metadata8"><rdf:RDF><cc:Work
         rdf:about=""><dc:format>image/svg+xml</dc:format><dc:type
           rdf:resource="http://purl.org/dc/dcmitype/StillImage" /><dc:title></dc:title></cc:Work></rdf:RDF></metadata><defs
     id="defs6"><clipPath
       clipPathUnits="userSpaceOnUse"
       id="clipPath26"><path
         d="m 0,595.89 1095.276,0 0,-595.89 L 0,0 0,595.89 z"
         id="path28"
         inkscape:connector-curvature="0" /></clipPath></defs><sodipodi:namedview
     pagecolor="#ffffff"
     bordercolor="#666666"
     borderopacity="1"
     objecttolerance="10"
     gridtolerance="10"
     guidetolerance="10"
     inkscape:pageopacity="0"
     inkscape:pageshadow="2"
     inkscape:window-width="1366"
     inkscape:window-height="705"
     id="namedview4"
     showgrid="false"
     inkscape:zoom="0.316837"
     inkscape:cx="108.27231"
     inkscape:cy="292.98592"
     inkscape:window-x="-4"
     inkscape:window-y="-4"
     inkscape:window-maximized="1"
     inkscape:current-layer="g10"
     fit-margin-top="0"
     fit-margin-left="0"
     fit-margin-right="0"
     fit-margin-bottom="0" /><g
     id="g10"
     inkscape:groupmode="layer"
     inkscape:label="Compulink_Group_logo_ai"
     transform="matrix(1.25,0,0,-1.25,-30.664062,68.359375)">
<g
   id="g4215"
   inkscape:export-filename="/home/yellow/GIT_NEXTGIS/ngq_compulink/qgis-installer/images/src/icon/compulink_icon_24.png"
   inkscape:export-xdpi="42.34"
   inkscape:export-ydpi="42.34"><g
   id="g4205"><rect
     style="fill:#ffffff;fill-rule:evenodd;stroke:#373536;stroke-width:0.80000001px;stroke-linecap:butt;stroke-linejoin:miter;stroke-opacity:1"
     id="rect3433"
     width="40"
     height="40"
     x="24.933956"
     y="-54.286621"
     transform="scale(1,-1)"
     ry="7.259253" /><path
     d="m 56.665967,18.126466 4.135,0 0,26.131 -4.135,0 0,-26.131 z"
     style="fill:#40a4dc;fill-opacity:1;fill-rule:nonzero;stroke:none"
     id="path12"
     inkscape:connector-curvature="0" /><g
     id="g60"
     transform="translate(45.220643,22.263466)"><path
       d="m 0,0 -0.039,-0.004 -0.076,0 C -0.376,-0.017 -1.336,0.072 -1.968,0.46 -2.289,0.652 -2.541,0.881 -2.754,1.25 -2.961,1.619 -3.148,2.171 -3.153,3.104 l 0,1.124 0,0.03 0,0.44 c 0.005,0.939 0.192,1.49 0.399,1.856 0.31,0.541 0.748,0.822 1.307,1.026 0.542,0.197 1.141,0.232 1.332,0.229 0.03,0 0.047,-0.003 0.053,-0.003 l 0.046,-0.003 8.827,0 0,4.134 -8.688,0 c -0.056,0.002 -0.138,0.002 -0.238,0.002 -0.656,-0.009 -2.248,-0.057 -3.94,-1.03 C -4.893,10.423 -5.744,9.664 -6.347,8.599 -6.953,7.539 -7.29,6.215 -7.285,4.698 l 0,-0.44 0,-0.03 0,-0.439 0,-0.685 c -0.005,-1.514 0.332,-2.838 0.938,-3.899 0.911,-1.608 2.347,-2.473 3.53,-2.88 1.194,-0.416 2.209,-0.457 2.702,-0.462 0.087,0 0.155,0.002 0.203,0.005 L 8.832,-4.125 8.829,0.009 0,0 z"
       style="fill:#373536;fill-opacity:1;fill-rule:nonzero;stroke:none"
       id="path62"
       inkscape:connector-curvature="0" /></g></g><text
   transform="scale(1,-1)"
   sodipodi:linespacing="125%"
   id="text4211"
   y="-40.083698"
   x="29.037012"
   style="font-size:12.80000019px;font-style:normal;font-weight:bold;line-height:125%;letter-spacing:0px;word-spacing:0px;fill:#000000;fill-opacity:1;stroke:none;font-family:Sans;-inkscape-font-specification:Sans Bold"
   xml:space="preserve"><tspan
     y="-40.083698"
     x="29.037012"
     id="tspan4213"
     sodipodi:role="line">GIS</tspan></text>

</g></g></svg>