<?xml version="1.0" encoding="UTF-8" standalone="no"?>
<!-- Created with Inkscape (http://www.inkscape.org/) -->

<svg
   xmlns:dc="http://purl.org/dc/elements/1.1/"
   xmlns:cc="http://creativecommons.org/ns#"
   xmlns:rdf="http://www.w3.org/1999/02/22-rdf-syntax-ns#"
   xmlns:svg="http://www.w3.org/2000/svg"
   xmlns="http://www.w3.org/2000/svg"
   version="1.1"
   width="420.6456"
   height="297.6456"
   id="svg44788">
  <defs
     id="defs44790" />
  <metadata
     id="metadata44793">
    <rdf:RDF>
      <cc:Work
         rdf:about="">
        <dc:format>image/svg+xml</dc:format>
        <dc:type
           rdf:resource="http://purl.org/dc/dcmitype/StillImage" />
        <dc:title></dc:title>
      </cc:Work>
    </rdf:RDF>
  </metadata>
  <g
     transform="translate(-133.24861,-66.396537)"
     id="layer1">
    <g
       transform="translate(-1822.9942,-327.46767)"
       id="g44597">
      <path
         d="m 1976.5656,686.187 395,0 0,-287 -395,0 0,287"
         id="path3302"
         style="fill:none;stroke:#000000;stroke-width:0.64558566" />
      <path
         d="m 1956.5656,691.187 420,0 0,-297 -420,0 0,297"
         id="path3304"
         style="fill:none;stroke:#000000;stroke-width:0.64558566" />
      <text
         x="-625.88702"
         y="1968.3162"
         transform="matrix(0,-1,1,0,0,0)"
         id="text3306"
         style="font-size:2.5px;fill:none;stroke:#000000;stroke-width:0.64558566">Взам. инв. №</text>
      <text
         x="-658.987"
         y="1968.3156"
         transform="matrix(0,-1,1,0,0,0)"
         id="text3308"
         style="font-size:2.5px;fill:none;stroke:#000000;stroke-width:0.64558566">Подпись и дата</text>
      <text
         x="-685.88702"
         y="1968.2162"
         transform="matrix(0,-1,1,0,0,0)"
         id="text3310"
         style="font-size:2.5px;fill:none;stroke:#000000;stroke-width:0.64558566">Инв. № подл.</text>
      <path
         d="m 1964.5656,601.187 12,0"
         id="path3312"
         style="fill:none;stroke:#000000;stroke-width:0.64558566" />
      <path
         d="m 1964.5656,626.187 12,0"
         id="path3314"
         style="fill:none;stroke:#000000;stroke-width:0.64558566" />
      <path
         d="m 1964.5656,661.187 12,0"
         id="path3316"
         style="fill:none;stroke:#000000;stroke-width:0.64558566" />
      <path
         d="m 1964.5656,686.187 12,0"
         id="path3318"
         style="fill:none;stroke:#000000;stroke-width:0.64558566" />
      <path
         d="m 1964.5656,601.187 0,85"
         id="path3320"
         style="fill:none;stroke:#000000;stroke-width:0.64558566" />
      <path
         d="m 1969.5656,601.187 0,85"
         id="path3322"
         style="fill:none;stroke:#000000;stroke-width:0.64558566" />
      <path
         d="m 1976.5656,601.187 0,85"
         id="path3324"
         style="fill:none;stroke:#000000;stroke-width:0.64558566" />
      <path
         d="m 1971.5656,601.187 0,-65"
         id="path3326"
         style="fill:none;stroke:#000000;stroke-width:0.64558566" />
      <path
         d="m 1966.5656,601.187 0,-65"
         id="path3328"
         style="fill:none;stroke:#000000;stroke-width:0.64558566" />
      <path
         d="m 1961.5656,601.187 0,-65"
         id="path3330"
         style="fill:none;stroke:#000000;stroke-width:0.64558566" />
      <path
         d="m 1956.5656,536.187 20,0"
         id="path3332"
         style="fill:none;stroke:#000000;stroke-width:0.64558566" />
      <path
         d="m 1961.5656,546.187 15,0"
         id="path3334"
         style="fill:none;stroke:#000000;stroke-width:0.64558566" />
      <path
         d="m 1961.5656,561.187 15,0"
         id="path3336"
         style="fill:none;stroke:#000000;stroke-width:0.64558566" />
      <path
         d="m 1961.5656,581.187 15,0"
         id="path3338"
         style="fill:none;stroke:#000000;stroke-width:0.64558566" />
      <path
         d="m 1956.5656,601.187 8,0"
         id="path3340"
         style="fill:none;stroke:#000000;stroke-width:0.64558566" />
      <text
         x="-599.78699"
         y="1960.2158"
         transform="matrix(0,-1,1,0,0,0)"
         id="text3342"
         style="font-size:2.5px;fill:none;stroke:#000000;stroke-width:0.64558566">Согласовано</text>
      <text
         x="2354.5056"
         y="689.68738"
         id="text3344"
         style="font-size:2.5px;fill:none;stroke:#000000;stroke-width:0.64558566">Формат А3</text>
      <path
         d="m 2326.5656,686.087 0,-14.962"
         id="path3346"
         style="fill:none;stroke:#000000;stroke-width:0.64558566" />
      <path
         d="m 2326.5656,671.187 45,0"
         id="path3348"
         style="fill:none;stroke:#000000;stroke-width:0.64558566" />
      <path
         d="m 2186.5656,631.187 185,0"
         id="path3350"
         style="fill:none;stroke:#000000;stroke-width:0.64558566" />
      <path
         d="m 2256.5656,686.187 0,-55"
         id="path3352"
         style="fill:none;stroke:#000000;stroke-width:0.64558566" />
      <path
         d="m 2244.7856,631.187 0,55"
         id="path3354"
         style="fill:none;stroke:#000000;stroke-width:0.64558566" />
      <path
         d="m 2214.0656,631.187 0,25"
         id="path3356"
         style="fill:none;stroke:#000000;stroke-width:0.64558566" />
      <path
         d="m 2194.9756,631.187 0,25"
         id="path3358"
         style="fill:none;stroke:#000000;stroke-width:0.64558566" />
      <path
         d="m 2203.5656,631.187 0,55"
         id="path3360"
         style="fill:none;stroke:#000000;stroke-width:0.64558566" />
      <path
         d="m 2227.5656,631.187 0,55"
         id="path3362"
         style="fill:none;stroke:#000000;stroke-width:0.64558566" />
      <path
         d="m 2186.5656,686.187 0,-55"
         id="path3364"
         style="fill:none;stroke:#000000;stroke-width:0.64558566" />
      <path
         d="m 2256.5656,671.187 115,0"
         id="path3366"
         style="fill:none;stroke:#000000;stroke-width:0.64558566" />
      <path
         d="m 2256.5656,641.187 115,0"
         id="path3368"
         style="fill:none;stroke:#000000;stroke-width:0.64558566" />
      <path
         d="m 2186.5656,656.187 185,0"
         id="path3370"
         style="fill:none;stroke:#000000;stroke-width:0.64558566" />
      <path
         d="m 2186.5656,681.187 70,0"
         id="path3372"
         style="fill:none;stroke:#000000;stroke-width:0.64558566" />
      <path
         d="m 2186.5656,676.187 70,0"
         id="path3374"
         style="fill:none;stroke:#000000;stroke-width:0.64558566" />
      <path
         d="m 2186.5656,671.187 70,0"
         id="path3376"
         style="fill:none;stroke:#000000;stroke-width:0.64558566" />
      <path
         d="m 2186.5656,651.187 70,0"
         id="path3378"
         style="fill:none;stroke:#000000;stroke-width:0.64558566" />
      <path
         d="m 2186.5656,646.187 70,0"
         id="path3380"
         style="fill:none;stroke:#000000;stroke-width:0.64558566" />
      <path
         d="m 2186.5656,641.187 70,0"
         id="path3382"
         style="fill:none;stroke:#000000;stroke-width:0.64558566" />
      <path
         d="m 2186.5656,666.187 70,0"
         id="path3384"
         style="fill:none;stroke:#000000;stroke-width:0.64558566" />
      <path
         d="m 2186.5656,661.187 70,0"
         id="path3386"
         style="fill:none;stroke:#000000;stroke-width:0.64558566" />
      <path
         d="m 2326.5656,661.187 45,0"
         id="path3388"
         style="fill:none;stroke:#000000;stroke-width:0.64558566" />
      <path
         d="m 2326.5656,686.187 0,-30"
         id="path3390"
         style="fill:none;stroke:#000000;stroke-width:0.64558566" />
      <path
         d="m 2353.3156,671.187 0,-15"
         id="path3392"
         style="fill:none;stroke:#000000;stroke-width:0.64558566" />
      <path
         d="m 2339.3156,671.187 0,-15"
         id="path3394"
         style="fill:none;stroke:#000000;stroke-width:0.64558566" />
      <path
         d="m 2186.5656,636.187 70,0"
         id="path3396"
         style="fill:none;stroke:#000000;stroke-width:0.64558566" />
      <text
         x="2356.9556"
         y="660.0874"
         id="text3398"
         style="font-size:2.75px;fill:none;stroke:#000000;stroke-width:0.64558566">Листов</text>
      <text
         x="2327.7856"
         y="660.28741"
         id="text3400"
         style="font-size:2.75px;fill:none;stroke:#000000;stroke-width:0.64558566">Стадия</text>
      <text
         x="2342.3457"
         y="660.0874"
         id="text3402"
         style="font-size:2.75px;fill:none;stroke:#000000;stroke-width:0.64558566">Лист</text>
      <text
         x="2188.1858"
         y="655.0874"
         id="text3404"
         style="font-size:2.75px;fill:none;stroke:#000000;stroke-width:0.64558566">Изм.</text>
      <text
         x="2216.4556"
         y="655.0874"
         id="text3406"
         style="font-size:2.75px;fill:none;stroke:#000000;stroke-width:0.64558566">№ док.</text>
      <text
         x="2195.6157"
         y="655.08698"
         id="text3408"
         style="font-size:2.75px;fill:none;stroke:#000000;stroke-width:0.64558566">Кол.уч</text>
      <text
         x="2205.0857"
         y="655.0874"
         id="text3410"
         style="font-size:2.75px;fill:none;stroke:#000000;stroke-width:0.64558566">Лист</text>
      <text
         x="2246.9158"
         y="655.0874"
         id="text3412"
         style="font-size:2.75px;fill:none;stroke:#000000;stroke-width:0.64558566">Дата</text>
      <text
         x="2232.6758"
         y="655.0874"
         id="text3414"
         style="font-size:2.75px;fill:none;stroke:#000000;stroke-width:0.64558566">Подп.</text>
      <text
         x="2330.5857"
         y="667.58661"
         id="text3416"
         style="font-size:2.75px;fill:none;stroke:#000000;stroke-width:0.64558566">ЭП</text>
      <text
         x="2187.8357"
         y="675.0874"
         id="text3420"
         style="font-size:2.75px;fill:none;stroke:#000000;stroke-width:0.64558566">Разраб.</text>
      <text
         x="2187.8357"
         y="660.0874"
         id="text3438"
         style="font-size:2.75px;fill:none;stroke:#000000;stroke-width:0.64558566">ГИП</text>
      <text
         x="2187.8357"
         y="665.0874"
         id="text3442"
         style="font-size:2.75px;fill:none;stroke:#000000;stroke-width:0.64558566">Н. Контр.</text>
      <text
         x="2345.6558"
         y="667.58661"
         id="text3578"
         style="font-size:2.75px;fill:none;stroke:#000000;stroke-width:0.64558566">-</text>
      <text
         x="2294.4956"
         y="638.0874"
         id="text3588"
         style="font-size:4px;fill:none;stroke:#000000;stroke-width:0.64558566">ЦЭФ-77ЭП-0000-2</text>
      <text
         x="2267.9956"
         y="680.08661"
         id="text3592"
         style="font-size:2.75px;fill:none;stroke:#000000;stroke-width:0.64558566">Ситуационная карта-схема ВОЛС</text>
      <path
         d="m 2006.1256,425.287 1.8124,0.236 2.5737,-4.578 -4.3861,4.342 z m -4,0 0.2359,-1.812 -4.5777,-2.574 4.3418,4.386 z m 3.75,5.8 4.5777,2.574 -4.3418,-4.386 -0.2359,1.812 z m -8.15,2.5 4.3861,-4.342 -1.8125,-0.236 -2.5736,4.578 0,0 z m 6.39,-6.3 2.0101,-1.99 -1.9188,-16.01 -0.091,18 z m 18,0.1 -16.0099,1.919 -1.9898,-2.01 17.9998,0.09 z m -36,-0.2 16.0099,-1.919 1.9898,2.01 -17.9998,-0.09 z m 15.99,2.1 2.0101,-1.99 -0.091,18 -1.9188,-16.01 z"
         id="path5136"
         style="fill:none;stroke:#000000;stroke-width:0.64558566" />
      <path
         d="m 2004.0256,445.287 0.1827,-35.999"
         id="path5138"
         style="fill:none;stroke:#000000;stroke-width:0.64558566" />
      <path
         d="m 2005.9156,423.487 4.6035,-2.527 -2.5736,4.578"
         id="path5140"
         style="fill:none;stroke:#000000;stroke-width:0.64558566" />
      <path
         d="m 1997.7256,433.587 12.7923,-12.663"
         id="path5142"
         style="fill:none;stroke:#000000;stroke-width:0.64558566" />
      <path
         d="m 2002.3256,431.087 -4.6035,2.527 2.5736,-4.578"
         id="path5144"
         style="fill:none;stroke:#000000;stroke-width:0.64558566" />
      <path
         d="m 2000.3156,425.487 -2.527,-4.604 4.5776,2.574"
         id="path5146"
         style="fill:none;stroke:#000000;stroke-width:0.64558566" />
      <path
         d="m 2002.1256,425.287 2.0812,-15.99"
         id="path5148"
         style="fill:none;stroke:#000000;stroke-width:0.64558566" />
      <path
         d="m 2004.2056,409.287 1.9188,16.01"
         id="path5150"
         style="fill:none;stroke:#000000;stroke-width:0.64558566" />
      <path
         d="m 2006.1256,425.287 15.9896,2.081"
         id="path5152"
         style="fill:none;stroke:#000000;stroke-width:0.64558566" />
      <path
         d="m 2022.1156,427.387 -16.0099,1.919"
         id="path5154"
         style="fill:none;stroke:#000000;stroke-width:0.64558566" />
      <path
         d="m 2006.1056,429.287 -2.0812,15.99"
         id="path5156"
         style="fill:none;stroke:#000000;stroke-width:0.64558566" />
      <path
         d="m 2004.0256,445.287 -1.9188,-16.01"
         id="path5158"
         style="fill:none;stroke:#000000;stroke-width:0.64558566" />
      <path
         d="m 2002.1056,429.287 -15.9896,-2.081"
         id="path5160"
         style="fill:none;stroke:#000000;stroke-width:0.64558566" />
      <path
         d="m 1986.1156,427.187 16.0099,-1.919"
         id="path5162"
         style="fill:none;stroke:#000000;stroke-width:0.64558566" />
      <path
         d="m 2010.4556,433.687 -12.6632,-12.792"
         id="path5164"
         style="fill:none;stroke:#000000;stroke-width:0.64558566" />
      <path
         d="m 2007.9256,429.087 2.527,4.604"
         id="path5166"
         style="fill:none;stroke:#000000;stroke-width:0.64558566" />
      <path
         d="m 2010.4556,433.687 -4.5777,-2.574"
         id="path5168"
         style="fill:none;stroke:#000000;stroke-width:0.64558566" />
      <path
         d="m 1986.1156,427.187 35.9995,0.183"
         id="path5170"
         style="fill:none;stroke:#000000;stroke-width:0.64558566" />
      <text
         x="2002.4957"
         y="407.3866"
         id="text5172"
         style="font-size:4px;fill:none;stroke:#000026;stroke-width:0.64558566">С</text>
      <text
         x="2002.4957"
         y="451.2868"
         id="text5174"
         style="font-size:4px;fill:none;stroke:#000026;stroke-width:0.64558566">Ю</text>
      <text
         x="1982.0957"
         y="429.18738"
         id="text5176"
         style="font-size:4px;fill:none;stroke:#000026;stroke-width:0.64558566">З</text>
      <text
         x="2022.8956"
         y="429.18738"
         id="text5178"
         style="font-size:4px;fill:none;stroke:#000026;stroke-width:0.64558566">В</text>
      <path
         d="m 1982.3056,403.087 43.7212,0 0,48.709 -43.7212,0 0,-48.709 z"
         id="path5180"
         style="fill:none;stroke:#000000;stroke-width:0.64558566" />
      <path
         d="m 1982.3056,403.087 43.7212,0 0,48.709 -43.7212,0 0,-48.709 z"
         id="path5182"
         style="fill:none;stroke:#000000;stroke-width:0.64558566" />
      <text
         x="2294.4956"
         y="638.0874"
         id="text16328"
         style="font-size:4px;fill:none;stroke:#000000;stroke-width:0.64558566">ЦЭФ-77ЭП-0000-2</text>
    </g>
  </g>
</svg>
